<svg width="226" height="90" viewBox="0 0 226 90" fill="none" xmlns="http://www.w3.org/2000/svg">
<path d="M17.824 41V24.296H19.936L23.464 32.096L25.12 35.984H25.192L26.848 32.12L30.328 24.296H32.392V41H30.28V29.096L30.208 29.144L28.912 32.288L26.032 38.528H24.184L21.256 32.096L20.008 29.096L19.936 29.144V41H17.824ZM38.1771 41L44.2971 24.296H46.1211L52.2411 41H50.0091L48.6651 37.16H41.7291L40.3851 41H38.1771ZM42.3291 35.336H48.0651L46.4571 30.656L45.2331 27.104H45.1611L43.9851 30.56L42.3291 35.336ZM56.4329 41L61.5689 32.432L56.7689 24.296H59.1209L62.7209 30.8L66.3449 24.296H68.6969L63.8969 32.432L69.0329 41H66.6809L62.7209 34.064L58.7849 41H56.4329ZM74.9234 41V24.296H77.0354V41H74.9234ZM84.7924 41V24.296H86.9044L90.4324 32.096L92.0884 35.984H92.1604L93.8164 32.12L97.2964 24.296H99.3604V41H97.2484V29.096L97.1764 29.144L95.8804 32.288L93.0004 38.528H91.1524L88.2244 32.096L86.9764 29.096L86.9044 29.144V41H84.7924ZM118.937 41L114.737 24.296H117.041L118.913 32.48L119.921 36.992L120.017 37.016L121.121 32.528L123.401 24.296H125.129L127.481 32.672L128.633 37.04H128.705C128.993 35.696 129.281 34.064 129.569 32.744L131.489 24.296H133.793L129.569 41H127.745L125.489 32.696L124.289 28.232L124.193 28.256L123.113 32.384L120.785 41H118.937ZM140.111 41V24.296H150.671V26.24H142.223V31.64H149.423V33.488H142.223V39.056H150.671V41H140.111ZM157.222 41V24.296H163.534C166.774 24.296 168.454 26.096 168.454 28.664C168.454 29.984 167.758 31.664 165.934 32.312V32.384C167.878 32.84 168.838 34.712 168.838 36.368C168.838 39.2 166.702 41 164.23 41H157.222ZM159.334 39.056H163.63C165.742 39.056 166.726 37.688 166.726 36.2C166.726 34.712 165.742 33.368 163.63 33.368H159.334V39.056ZM159.334 31.544H163.27C165.31 31.544 166.342 30.344 166.342 28.832C166.342 27.344 165.31 26.144 163.27 26.144H159.334V31.544ZM175.646 41V24.296H186.206V26.24H177.758V31.64H184.958V33.488H177.758V39.056H186.206V41H175.646ZM192.757 41V24.296H199.573C202.285 24.296 204.397 26.144 204.397 28.856C204.397 31.136 202.933 32.792 200.797 33.44L204.181 41H201.829L198.637 33.656H194.869V41H192.757ZM194.869 31.808H199.093C200.917 31.808 202.285 30.752 202.285 28.856C202.285 26.984 201.013 26.144 199.189 26.144H194.869V31.808Z" fill="#252326"/>
<path d="M17.292 62V50.168H21.763C24.058 50.168 25.248 51.443 25.248 53.262C25.248 54.197 24.755 55.387 23.463 55.846V55.897C24.84 56.22 25.52 57.546 25.52 58.719C25.52 60.725 24.007 62 22.256 62H17.292ZM18.788 60.623H21.831C23.327 60.623 24.024 59.654 24.024 58.6C24.024 57.546 23.327 56.594 21.831 56.594H18.788V60.623ZM18.788 55.302H21.576C23.021 55.302 23.752 54.452 23.752 53.381C23.752 52.327 23.021 51.477 21.576 51.477H18.788V55.302ZM28.2852 58.26V58.396C28.2852 59.722 29.0162 60.81 30.4612 60.81C31.0052 60.81 31.8042 60.521 32.3652 60.011L33.2662 61.014C32.4672 61.779 31.4302 62.102 30.3932 62.102C28.6762 62.102 26.8232 61.303 26.8232 57.818C26.8232 54.486 28.7442 53.466 30.3422 53.466C32.1952 53.466 33.7082 54.826 33.7082 57.172V58.26H28.2852ZM28.2852 57.087H32.2462C32.1782 55.574 31.4132 54.792 30.2742 54.792C29.1352 54.792 28.3702 55.625 28.2852 57.087ZM35.5007 62V53.568H36.8947V54.639H36.9627C37.5577 53.772 38.2717 53.483 39.1727 53.483C39.7507 53.483 40.2777 53.619 40.6007 53.84L40.0057 55.183C39.6657 54.962 39.2577 54.86 38.8157 54.86C37.7107 54.86 36.8947 55.557 36.8947 56.9V62H35.5007ZM41.7097 60.045V49.658H43.1037V59.926C43.1037 60.436 43.3927 60.725 43.9707 60.725H44.3787V62H43.7837C42.5597 62 41.7097 61.49 41.7097 60.045ZM45.8945 62V53.568H47.2885V62H45.8945ZM45.8945 51.562V50.168H47.2885V51.562H45.8945ZM49.4413 62V53.551H50.8353V54.622H50.8863C51.4643 53.891 52.4163 53.483 53.3173 53.483C54.9323 53.483 56.1223 54.452 56.1223 56.407V62H54.7283V56.951C54.7283 55.659 54.2863 54.86 52.8073 54.86C51.6853 54.86 50.8353 55.659 50.8353 56.951V62H49.4413ZM61.8936 62V49.658H63.2876V54.52H63.3216C64.0356 53.738 64.8006 53.483 65.6166 53.483C68.0136 53.483 68.5916 55.591 68.6256 57.665C68.6256 59.807 68.1496 62.102 65.6166 62.102C64.8006 62.102 63.8826 61.898 63.3216 61.065H63.2876V62H61.8936ZM65.2256 60.827C66.9936 60.827 67.1806 59.093 67.1806 57.784C67.1806 56.424 66.9596 54.877 65.2256 54.877C63.5256 54.877 63.2876 56.509 63.2876 57.784C63.2876 59.025 63.4916 60.827 65.2256 60.827ZM75.2572 62V61.269L75.2402 61.252C74.9342 61.745 74.0502 62.102 72.9112 62.102C70.9902 62.102 69.9192 61.048 69.9192 59.603C69.9192 58.294 70.8032 57.121 72.6052 57.121H75.2572V56.169C75.2572 55.251 74.6792 54.792 73.3192 54.792C72.2652 54.792 71.6872 55.081 71.3132 55.523L70.4292 54.588C71.0582 53.857 72.1122 53.483 73.2682 53.483C75.0872 53.483 76.6682 54.061 76.6682 56.203V62H75.2572ZM75.2572 59.263V58.277H72.9452C71.8572 58.277 71.2452 58.736 71.2452 59.518C71.2452 60.317 71.8402 60.827 73.0812 60.827C74.1692 60.827 75.2572 60.521 75.2572 59.263ZM77.8484 60.878L78.6984 59.807C79.4804 60.487 80.3304 60.844 81.4354 60.844C82.4554 60.844 83.2884 60.419 83.2884 59.535C83.2884 58.668 82.5064 58.464 81.3504 58.345C80.0414 58.209 78.3584 57.971 78.3584 56.05C78.3584 54.469 79.7864 53.483 81.4354 53.483C82.7104 53.483 83.6624 53.806 84.4444 54.401L83.6964 55.523C83.0334 55.081 82.3364 54.775 81.4354 54.775C80.3644 54.775 79.7184 55.268 79.7184 56.016C79.7184 56.781 80.5004 57.019 82.0304 57.172C83.2204 57.291 84.6824 57.801 84.6824 59.501C84.6824 61.065 83.3054 62.102 81.3674 62.102C80.1434 62.102 78.8514 61.745 77.8484 60.878ZM87.4199 58.26V58.396C87.4199 59.722 88.1509 60.81 89.5959 60.81C90.1399 60.81 90.9389 60.521 91.4999 60.011L92.4009 61.014C91.6019 61.779 90.5649 62.102 89.5279 62.102C87.8109 62.102 85.9579 61.303 85.9579 57.818C85.9579 54.486 87.8789 53.466 89.4769 53.466C91.3299 53.466 92.8429 54.826 92.8429 57.172V58.26H87.4199ZM87.4199 57.087H91.3809C91.3129 55.574 90.5479 54.792 89.4089 54.792C88.2699 54.792 87.5049 55.625 87.4199 57.087ZM99.6165 62V61.184L99.5655 61.167C98.8175 61.881 98.0355 62.102 97.2025 62.102C94.7885 62.102 94.2615 60.147 94.2615 57.869C94.2615 55.693 94.8905 53.483 97.5425 53.483C98.3755 53.483 99.1575 53.772 99.5825 54.333H99.6165V49.658H101.01V62H99.6165ZM97.6445 60.725C99.3275 60.725 99.6165 59.025 99.6165 57.784C99.6165 56.509 99.4125 54.877 97.7125 54.877C95.9615 54.877 95.7235 56.424 95.7235 57.784C95.7235 59.348 95.9275 60.725 97.6445 60.725ZM106.769 57.716V50.168H108.248V57.597C108.248 59.161 109.149 60.674 110.985 60.674C112.651 60.674 113.688 59.569 113.688 57.597V50.168H115.184V57.716C115.184 60.402 113.535 62.102 110.968 62.102C108.146 62.102 106.769 60.079 106.769 57.716ZM117.516 62V50.168H119.012V62H117.516ZM126.478 49.862L121.956 62H120.494L125.016 49.862H126.478ZM127.703 57.716V50.168H129.182V57.597C129.182 59.161 130.083 60.674 131.919 60.674C133.585 60.674 134.622 59.569 134.622 57.597V50.168H136.118V57.716C136.118 60.402 134.469 62.102 131.902 62.102C129.08 62.102 127.703 60.079 127.703 57.716ZM137.141 62L140.779 55.931L137.379 50.168H139.045L141.595 54.775L144.162 50.168H145.828L142.428 55.931L146.066 62H144.4L141.595 57.087L138.807 62H137.141ZM155.995 62V61.184L155.944 61.167C155.196 61.881 154.414 62.102 153.581 62.102C151.167 62.102 150.64 60.147 150.64 57.869C150.64 55.693 151.269 53.483 153.921 53.483C154.754 53.483 155.536 53.772 155.961 54.333H155.995V49.658H157.389V62H155.995ZM154.023 60.725C155.706 60.725 155.995 59.025 155.995 57.784C155.995 56.509 155.791 54.877 154.091 54.877C152.34 54.877 152.102 56.424 152.102 57.784C152.102 59.348 152.306 60.725 154.023 60.725ZM160.417 58.26V58.396C160.417 59.722 161.148 60.81 162.593 60.81C163.137 60.81 163.936 60.521 164.497 60.011L165.398 61.014C164.599 61.779 163.562 62.102 162.525 62.102C160.808 62.102 158.955 61.303 158.955 57.818C158.955 54.486 160.876 53.466 162.474 53.466C164.327 53.466 165.84 54.826 165.84 57.172V58.26H160.417ZM160.417 57.087H164.378C164.31 55.574 163.545 54.792 162.406 54.792C161.267 54.792 160.502 55.625 160.417 57.087ZM166.8 60.878L167.65 59.807C168.432 60.487 169.282 60.844 170.387 60.844C171.407 60.844 172.24 60.419 172.24 59.535C172.24 58.668 171.458 58.464 170.302 58.345C168.993 58.209 167.31 57.971 167.31 56.05C167.31 54.469 168.738 53.483 170.387 53.483C171.662 53.483 172.614 53.806 173.396 54.401L172.648 55.523C171.985 55.081 171.288 54.775 170.387 54.775C169.316 54.775 168.67 55.268 168.67 56.016C168.67 56.781 169.452 57.019 170.982 57.172C172.172 57.291 173.634 57.801 173.634 59.501C173.634 61.065 172.257 62.102 170.319 62.102C169.095 62.102 167.803 61.745 166.8 60.878ZM175.453 62V53.568H176.847V62H175.453ZM175.453 51.562V50.168H176.847V51.562H175.453ZM179.204 64.516L180.037 63.377C180.479 63.768 181.295 64.142 181.958 64.142C183.216 64.142 184.168 63.394 184.168 62.034V61.048H184.134C183.437 61.83 182.672 62.085 181.839 62.085C179.442 62.085 178.83 60.045 178.83 57.971C178.83 55.795 179.289 53.466 181.975 53.466C182.791 53.466 183.675 53.84 184.134 54.503H184.168V53.568H185.579V61.847C185.579 64.38 183.862 65.485 181.924 65.485C180.972 65.485 179.935 65.213 179.204 64.516ZM182.196 60.691C183.896 60.691 184.168 59.059 184.168 57.784C184.168 56.645 184.066 54.843 182.23 54.843C180.462 54.843 180.275 56.441 180.275 57.784C180.275 59.331 180.462 60.691 182.196 60.691ZM187.682 62V53.551H189.076V54.622H189.127C189.705 53.891 190.657 53.483 191.558 53.483C193.173 53.483 194.363 54.452 194.363 56.407V62H192.969V56.951C192.969 55.659 192.527 54.86 191.048 54.86C189.926 54.86 189.076 55.659 189.076 56.951V62H187.682ZM197.455 58.26V58.396C197.455 59.722 198.186 60.81 199.631 60.81C200.175 60.81 200.974 60.521 201.535 60.011L202.436 61.014C201.637 61.779 200.6 62.102 199.563 62.102C197.846 62.102 195.993 61.303 195.993 57.818C195.993 54.486 197.914 53.466 199.512 53.466C201.365 53.466 202.878 54.826 202.878 57.172V58.26H197.455ZM197.455 57.087H201.416C201.348 55.574 200.583 54.792 199.444 54.792C198.305 54.792 197.54 55.625 197.455 57.087ZM204.671 62V53.568H206.065V54.639H206.133C206.728 53.772 207.442 53.483 208.343 53.483C208.921 53.483 209.448 53.619 209.771 53.84L209.176 55.183C208.836 54.962 208.428 54.86 207.986 54.86C206.881 54.86 206.065 55.557 206.065 56.9V62H204.671Z" fill="#252326"/>
</svg>
